HIERARCHY
ROOT Hips
{
	OFFSET 0.000000 100.481300 0.000000
	CHANNELS 6 Xposition Yposition Zposition Xrotation Yrotation Zrotation 
	JOINT Spine
	{
		OFFSET -0.279200 12.230698 -2.892100
		CHANNELS 3 Xrotation Yrotation Zrotation
		JOINT Spine1
		{
			OFFSET -0.232667 10.192268 -1.242267
			CHANNELS 3 Xrotation Yrotation Zrotation
			JOINT Spine1_split
			{
				OFFSET -0.232667 10.192268 -1.242267
				CHANNELS 3 Xrotation Yrotation Zrotation
				JOINT Spine2
				{
					OFFSET -0.232667 10.192268 -1.242267
					CHANNELS 3 Xrotation Yrotation Zrotation
					JOINT Neck
					{
						OFFSET -0.418800 17.814194 8.416900
						CHANNELS 3 Xrotation Yrotation Zrotation
						JOINT Head
						{
							OFFSET 0.000000 7.031097 3.806800
							CHANNELS 3 Xrotation Yrotation Zrotation
							JOINT HeadTop_End
							{
								OFFSET 0.000000 24.646606 12.978600
								CHANNELS 3 Xrotation Yrotation Zrotation
								End Site
								{
									OFFSET 0.000000 0.000000 0.000000
								}
							}
						}
					}
					JOINT LeftShoulder
					{
						OFFSET 8.476499 7.247704 -3.868750
						CHANNELS 3 Xrotation Yrotation Zrotation
						JOINT LeftShoulder_split
						{
							OFFSET 8.476499 7.247704 -3.868750
							CHANNELS 3 Xrotation Yrotation Zrotation
							JOINT LeftArm
							{
								OFFSET 9.308998 -2.777710 0.208600
								CHANNELS 3 Xrotation Yrotation Zrotation
								JOINT LeftForeArm
								{
									OFFSET 29.972298 0.000000 0.000000
									CHANNELS 3 Xrotation Yrotation Zrotation
									JOINT LeftHand
									{
										OFFSET 26.026505 0.000000 0.000000
										CHANNELS 3 Xrotation Yrotation Zrotation
										JOINT LeftHandThumb1
										{
											OFFSET 12.240501 -7.147949 9.207150
											CHANNELS 3 Xrotation Yrotation Zrotation
											JOINT LeftHandThumb2
											{
												OFFSET 4.138618 -2.389435 2.389433
												CHANNELS 3 Xrotation Yrotation Zrotation
												JOINT LeftHandThumb3
												{
													OFFSET 2.726913 -1.574387 1.574386
													CHANNELS 3 Xrotation Yrotation Zrotation
													JOINT LeftHandThumb4
													{
														OFFSET 3.941010 -2.275345 2.275342
														CHANNELS 3 Xrotation Yrotation Zrotation
														End Site
														{
															OFFSET 0.000000 0.000000 0.000000
														}
													}
												}
											}
										}
										JOINT LeftHandIndex1
										{
											OFFSET 24.424698 -1.985611 5.953459
											CHANNELS 3 Xrotation Yrotation Zrotation
											JOINT LeftHandIndex2
											{
												OFFSET 6.426697 0.000000 0.000000
												CHANNELS 3 Xrotation Yrotation Zrotation
												JOINT LeftHandIndex3
												{
													OFFSET 5.337898 0.000000 0.000000
													CHANNELS 3 Xrotation Yrotation Zrotation
													JOINT LeftHandIndex4
													{
														OFFSET 4.409401 0.000000 0.000000
														CHANNELS 3 Xrotation Yrotation Zrotation
														End Site
														{
															OFFSET 0.000000 0.000000 0.000000
														}
													}
												}
											}
										}
										JOINT LeftHandMiddle1
										{
											OFFSET 23.810104 0.000000 0.000000
											CHANNELS 3 Xrotation Yrotation Zrotation
											JOINT LeftHandMiddle2
											{
												OFFSET 7.176498 0.000000 0.000000
												CHANNELS 3 Xrotation Yrotation Zrotation
												JOINT LeftHandMiddle3
												{
													OFFSET 6.774902 0.000000 0.000000
													CHANNELS 3 Xrotation Yrotation Zrotation
													JOINT LeftHandMiddle4
													{
														OFFSET 5.403328 0.000000 0.000000
														CHANNELS 3 Xrotation Yrotation Zrotation
														End Site
														{
															OFFSET 0.000000 0.000000 0.000000
														}
													}
												}
											}
										}
										JOINT LeftHandRing1
										{
											OFFSET 22.908401 -0.839279 -6.020567
											CHANNELS 3 Xrotation Yrotation Zrotation
											JOINT LeftHandRing2
											{
												OFFSET 6.337502 0.000000 0.000000
												CHANNELS 3 Xrotation Yrotation Zrotation
												JOINT LeftHandRing3
												{
													OFFSET 5.779297 0.000000 0.000000
													CHANNELS 3 Xrotation Yrotation Zrotation
													JOINT LeftHandRing4
													{
														OFFSET 4.965698 0.000000 0.000000
														CHANNELS 3 Xrotation Yrotation Zrotation
														End Site
														{
															OFFSET 0.000000 0.000000 0.000000
														}
													}
												}
											}
										}
										JOINT LeftHandPinky1
										{
											OFFSET 20.037003 -1.530319 -10.950146
											CHANNELS 3 Xrotation Yrotation Zrotation
											JOINT LeftHandPinky2
											{
												OFFSET 5.254700 0.000000 0.000000
												CHANNELS 3 Xrotation Yrotation Zrotation
												JOINT LeftHandPinky3
												{
													OFFSET 4.810204 0.000000 0.000000
													CHANNELS 3 Xrotation Yrotation Zrotation
													JOINT LeftHandPinky4
													{
														OFFSET 3.647202 0.000000 0.000000
														CHANNELS 3 Xrotation Yrotation Zrotation
														End Site
														{
															OFFSET 0.000000 0.000000 0.000000
														}
													}
												}
											}
										}
									}
								}
							}
						}
					}
					JOINT RightShoulder
					{
						OFFSET -7.570500 7.247704 -3.868750
						CHANNELS 3 Xrotation Yrotation Zrotation
						JOINT RightShoulder_split
						{
							OFFSET -7.570500 7.247704 -3.868750
							CHANNELS 3 Xrotation Yrotation Zrotation
							JOINT RightArm
							{
								OFFSET -9.308998 -2.777710 0.208500
								CHANNELS 3 Xrotation Yrotation Zrotation
								JOINT RightForeArm
								{
									OFFSET -29.972300 0.000000 0.000000
									CHANNELS 3 Xrotation Yrotation Zrotation
									JOINT RightHand
									{
										OFFSET -26.026505 0.000000 0.000000
										CHANNELS 3 Xrotation Yrotation Zrotation
										JOINT RightHandThumb1
										{
											OFFSET -12.240601 -7.148026 9.207092
											CHANNELS 3 Xrotation Yrotation Zrotation
											JOINT RightHandThumb2
											{
												OFFSET -4.138618 -2.389435 2.389433
												CHANNELS 3 Xrotation Yrotation Zrotation
												JOINT RightHandThumb3
												{
													OFFSET -2.726974 -1.574417 1.574421
													CHANNELS 3 Xrotation Yrotation Zrotation
													JOINT RightHandThumb4
													{
														OFFSET -3.941010 -2.275345 2.275343
														CHANNELS 3 Xrotation Yrotation Zrotation
														End Site
														{
															OFFSET 0.000000 0.000000 0.000000
														}
													}
												}
											}
										}
										JOINT RightHandIndex1
										{
											OFFSET -24.424698 -1.985657 5.953444
											CHANNELS 3 Xrotation Yrotation Zrotation
											JOINT RightHandIndex2
											{
												OFFSET -6.426697 0.000000 0.000000
												CHANNELS 3 Xrotation Yrotation Zrotation
												JOINT RightHandIndex3
												{
													OFFSET -5.337898 0.000000 0.000000
													CHANNELS 3 Xrotation Yrotation Zrotation
													JOINT RightHandIndex4
													{
														OFFSET -4.409401 0.000000 0.000000
														CHANNELS 3 Xrotation Yrotation Zrotation
														End Site
														{
															OFFSET 0.000000 0.000000 0.000000
														}
													}
												}
											}
										}
										JOINT RightHandMiddle1
										{
											OFFSET -23.810097 0.000000 0.000000
											CHANNELS 3 Xrotation Yrotation Zrotation
											JOINT RightHandMiddle2
											{
												OFFSET -7.176498 0.000000 0.000000
												CHANNELS 3 Xrotation Yrotation Zrotation
												JOINT RightHandMiddle3
												{
													OFFSET -6.774902 0.000000 0.000000
													CHANNELS 3 Xrotation Yrotation Zrotation
													JOINT RightHandMiddle4
													{
														OFFSET -5.403328 0.000000 0.000000
														CHANNELS 3 Xrotation Yrotation Zrotation
														End Site
														{
															OFFSET 0.000000 0.000000 0.000000
														}
													}
												}
											}
										}
										JOINT RightHandRing1
										{
											OFFSET -22.908302 -0.839325 -6.020576
											CHANNELS 3 Xrotation Yrotation Zrotation
											JOINT RightHandRing2
											{
												OFFSET -6.337502 0.000000 0.000000
												CHANNELS 3 Xrotation Yrotation Zrotation
												JOINT RightHandRing3
												{
													OFFSET -5.779297 0.000000 0.000000
													CHANNELS 3 Xrotation Yrotation Zrotation
													JOINT RightHandRing4
													{
														OFFSET -4.965698 0.000000 0.000000
														CHANNELS 3 Xrotation Yrotation Zrotation
														End Site
														{
															OFFSET 0.000000 0.000000 0.000000
														}
													}
												}
											}
										}
										JOINT RightHandPinky1
										{
											OFFSET -20.037003 -1.530334 -10.950259
											CHANNELS 3 Xrotation Yrotation Zrotation
											JOINT RightHandPinky2
											{
												OFFSET -5.254700 0.000000 0.000000
												CHANNELS 3 Xrotation Yrotation Zrotation
												JOINT RightHandPinky3
												{
													OFFSET -4.810204 0.000000 0.000000
													CHANNELS 3 Xrotation Yrotation Zrotation
													JOINT RightHandPinky4
													{
														OFFSET -3.647202 0.000000 0.000000
														CHANNELS 3 Xrotation Yrotation Zrotation
														End Site
														{
															OFFSET 0.000000 0.000000 0.000000
														}
													}
												}
											}
										}
									}
								}
							}
						}
					}
				}
			}
		}
	}
	JOINT LeftUpLeg
	{
		OFFSET 15.427100 -6.655098 0.678600
		CHANNELS 3 Xrotation Yrotation Zrotation
		JOINT LeftLeg
		{
			OFFSET 4.081073 -39.591068 13.024000
			CHANNELS 3 Xrotation Yrotation Zrotation
			JOINT LeftFoot
			{
				OFFSET -4.081074 -37.707932 -15.979700
				CHANNELS 3 Xrotation Yrotation Zrotation
				JOINT LeftToeBase
				{
					OFFSET 5.346399 -15.068900 20.645000
					CHANNELS 3 Xrotation Yrotation Zrotation
					JOINT LeftToe_End
					{
						OFFSET 2.754700 0.931300 11.300900
						CHANNELS 3 Xrotation Yrotation Zrotation
						End Site
						{
							OFFSET 0.000000 0.000000 0.000000
						}
					}
				}
			}
		}
	}
	JOINT RightUpLeg
	{
		OFFSET -15.569500 -6.655098 0.678600
		CHANNELS 3 Xrotation Yrotation Zrotation
		JOINT RightLeg
		{
			OFFSET -4.081825 -39.591045 13.023800
			CHANNELS 3 Xrotation Yrotation Zrotation
			JOINT RightFoot
			{
				OFFSET 4.081824 -37.707954 -15.979600
				CHANNELS 3 Xrotation Yrotation Zrotation
				JOINT RightToeBase
				{
					OFFSET -5.346400 -15.068900 20.645000
					CHANNELS 3 Xrotation Yrotation Zrotation
					JOINT RightToe_End
					{
						OFFSET -2.754700 0.931300 11.300900
						CHANNELS 3 Xrotation Yrotation Zrotation
						End Site
						{
							OFFSET 0.000000 0.000000 0.000000
						}
					}
				}
			}
		}
	}
}
MOTION
Frames: 4
Frame Time: 0.016667
-5.399212 92.277626 -10.234578 4.315149 -4.850347 -0.755439 4.969517 4.149129 1.588288 2.991726 2.867183 -1.819719 0.000000 0.000000 0.000000 2.926902 2.833091 -1.954512 -9.493068 -0.565099 0.882844 -20.378288 -2.771352 5.070002 -0.000000 0.000000 0.000000 0.458515 2.606269 -6.757460 0.000000 0.000000 0.000000 25.580775 -52.523301 -38.981594 -0.000004 -19.285258 -0.000010 -48.778271 -12.182558 -11.665772 -1.765963 13.580035 7.641503 4.742565 17.876576 1.476411 -0.125162 6.527493 3.024031 0.000001 -0.000001 -0.000000 0.103561 1.192117 -9.929414 0.103563 1.192121 -9.929403 0.025933 0.598305 -4.964157 -0.000002 -0.000002 0.000001 0.103232 1.190222 -9.913418 0.103903 1.194023 -9.945375 0.025934 0.598307 -4.964166 -0.000001 0.000001 0.000001 0.103561 1.192117 -9.929415 0.103563 1.192125 -9.929402 0.025934 0.598309 -4.964150 -0.000001 0.000000 -0.000000 0.787114 5.188579 -9.457058 0.096224 -2.863095 -10.432496 0.025938 0.598306 -4.964153 -0.000000 -0.000002 -0.000002 1.523274 1.245585 10.362046 0.000000 0.000000 0.000000 10.129986 46.984998 46.447407 0.000005 29.255934 -0.000012 -32.820592 0.835411 -2.238327 -2.082012 -13.461649 -8.150989 5.520676 -18.558749 -0.893711 -0.816672 -4.811724 -2.622792 0.000002 0.000001 -0.000001 0.104542 -1.203683 9.928041 0.104549 -1.203673 9.928033 0.026176 -0.604114 4.963464 0.000003 0.000001 -0.000000 0.104544 -1.203682 9.928039 0.104553 -1.203675 9.928033 0.026180 -0.604117 4.963462 -0.000000 0.000001 0.000001 0.104542 -1.203683 9.928039 0.104555 -1.203679 9.928036 0.026174 -0.604113 4.963463 -0.000002 0.000001 0.000002 0.104543 -1.203682 9.928039 0.104551 -1.203678 9.928033 0.026176 -0.604113 4.963466 0.000003 -0.000002 -0.000001 -34.127669 16.902049 8.088951 46.770844 0.229947 9.278542 1.223623 -0.747908 -6.981985 -5.170771 -0.021337 0.235583 0.000002 0.000001 -0.000000 -12.298648 -21.716831 3.990190 28.095806 6.843305 -3.898829 -22.022661 0.893430 -2.926572 -0.000003 0.000001 0.000000 0.000000 0.000001 0.000000 
-5.194787 92.820435 -8.313004 4.398489 -5.295216 -0.409613 4.965650 4.412271 1.092977 2.962541 3.100124 -1.886527 0.000000 0.000000 0.000000 2.889891 3.064185 -2.034033 -9.523294 -0.578629 0.921801 -20.831833 -2.752602 4.825273 -0.000002 0.000000 -0.000000 0.455199 2.689156 -6.796491 0.000000 0.000000 0.000000 25.277191 -51.870495 -39.495979 0.000003 -18.901795 -0.000005 -49.654779 -12.159122 -13.005453 -1.765963 13.580032 7.641503 4.742564 17.876574 1.476412 -0.125161 6.527495 3.024030 -0.000000 0.000000 -0.000000 0.103562 1.192121 -9.929411 0.103564 1.192124 -9.929403 0.025932 0.598307 -4.964152 0.000002 0.000001 -0.000000 0.103231 1.190222 -9.913417 0.103902 1.194022 -9.945380 0.025926 0.598307 -4.964169 0.000000 -0.000002 -0.000002 0.103562 1.192121 -9.929411 0.103562 1.192127 -9.929401 0.025936 0.598308 -4.964152 0.000001 0.000001 0.000004 0.787114 5.188581 -9.457058 0.096224 -2.863095 -10.432498 0.025936 0.598309 -4.964162 0.000001 0.000002 -0.000001 1.530161 1.252818 10.429240 0.000000 0.000000 0.000000 9.940783 46.715581 45.932582 -0.000008 30.649583 0.000012 -33.746349 0.701299 -2.595716 -2.082016 -13.461647 -8.150988 5.520675 -18.558749 -0.893712 -0.816669 -4.811725 -2.622795 0.000001 -0.000001 -0.000001 0.104545 -1.203685 9.928041 0.104551 -1.203675 9.928035 0.026178 -0.604109 4.963465 -0.000001 0.000001 0.000001 0.104546 -1.203684 9.928040 0.104547 -1.203676 9.928033 0.026174 -0.604114 4.963460 -0.000001 -0.000002 -0.000001 0.104545 -1.203683 9.928037 0.104551 -1.203679 9.928033 0.026177 -0.604111 4.963464 0.000002 0.000001 0.000000 0.104546 -1.203684 9.928040 0.104547 -1.203679 9.928033 0.026176 -0.604109 4.963463 0.000000 -0.000003 -0.000001 -35.200602 17.201087 7.901254 43.195657 -0.975630 9.359623 0.768922 -0.588221 -8.013693 0.000004 0.000003 -0.000004 0.000001 -0.000000 -0.000000 -10.337307 -21.208827 3.234801 26.279588 7.331277 -3.112450 -22.113946 0.820750 -2.673741 0.000000 -0.000002 0.000000 0.000000 0.000001 -0.000000 
-5.017836 93.393776 -6.476007 4.600940 -5.686897 -0.023497 4.930142 4.620224 0.607195 2.900547 3.300143 -1.941385 0.000000 0.000000 0.000000 2.820747 3.261077 -2.100404 -9.571883 -0.591769 0.937390 -21.470201 -2.764094 4.545624 -0.000004 -0.000000 -0.000000 0.445967 2.890031 -6.882943 0.000000 0.000000 0.000000 25.092932 -51.446252 -39.866414 0.000013 -18.420139 0.000001 -49.894354 -11.995668 -13.522585 -1.765963 13.580034 7.641501 4.742565 17.876576 1.476412 -0.125161 6.527494 3.024028 0.000000 0.000000 -0.000001 0.103562 1.192116 -9.929412 0.103562 1.192122 -9.929404 0.025932 0.598307 -4.964158 -0.000000 0.000001 0.000000 0.103232 1.190222 -9.913419 0.103901 1.194024 -9.945375 0.025931 0.598309 -4.964169 -0.000002 0.000000 -0.000001 0.103562 1.192116 -9.929414 0.103562 1.192125 -9.929403 0.025936 0.598309 -4.964152 -0.000001 -0.000001 0.000001 0.787115 5.188583 -9.457059 0.096225 -2.863096 -10.432498 0.025940 0.598309 -4.964158 0.000001 -0.000001 0.000000 1.532200 1.257835 10.441983 0.000000 0.000000 0.000000 9.610634 46.464879 45.649525 0.000005 31.858420 -0.000003 -34.274398 0.711800 -3.232392 -2.082011 -13.461643 -8.150990 5.520673 -18.558749 -0.893711 -0.816668 -4.811725 -2.622795 -0.000001 0.000000 -0.000000 0.104545 -1.203680 9.928038 0.104549 -1.203675 9.928033 0.026178 -0.604109 4.963463 0.000004 0.000001 0.000000 0.104546 -1.203680 9.928037 0.104552 -1.203676 9.928033 0.026174 -0.604113 4.963460 -0.000001 -0.000002 -0.000002 0.104543 -1.203678 9.928035 0.104547 -1.203678 9.928033 0.026178 -0.604111 4.963466 0.000003 0.000001 0.000001 0.104546 -1.203680 9.928037 0.104550 -1.203677 9.928032 0.026178 -0.604109 4.963465 0.000005 -0.000001 -0.000002 -36.270716 18.074636 7.696067 39.191619 -2.290959 9.537216 0.441783 -0.412127 -9.237699 0.000000 0.000002 -0.000001 0.000001 0.000000 -0.000000 -8.534087 -20.769347 2.349635 24.255499 7.571863 -2.227724 -21.929448 1.003519 -2.266920 0.000004 -0.000002 0.000001 -0.000000 -0.000002 0.000000 
-4.868746 93.978966 -4.736573 4.898062 -6.017338 0.403391 4.856487 4.768079 0.146289 2.803744 3.466849 -1.977863 0.000000 0.000000 0.000000 2.717944 3.423201 -2.147114 -9.647237 -0.596481 0.917443 -22.164162 -2.763896 4.201634 -0.000000 0.000000 0.000000 0.430259 3.192387 -7.009343 0.000000 0.000000 0.000000 25.095688 -51.318476 -40.087227 0.000001 -17.771225 -0.000013 -49.839716 -11.864150 -13.380656 -1.765964 13.580032 7.641504 4.742565 17.876576 1.476412 -0.125160 6.527493 3.024030 0.000000 0.000001 -0.000001 0.103561 1.192117 -9.929412 0.103564 1.192122 -9.929404 0.025934 0.598309 -4.964155 -0.000000 0.000001 -0.000002 0.103230 1.190223 -9.913419 0.103899 1.194023 -9.945377 0.025931 0.598306 -4.964167 -0.000001 -0.000000 -0.000002 0.103561 1.192117 -9.929411 0.103563 1.192123 -9.929403 0.025935 0.598308 -4.964149 -0.000001 -0.000000 0.000000 0.787113 5.188581 -9.457061 0.096225 -2.863095 -10.432498 0.025938 0.598309 -4.964155 -0.000001 -0.000001 -0.000000 1.527130 1.258454 10.378016 0.000000 0.000000 0.000000 9.134253 46.242116 45.624625 0.000008 32.823099 0.000004 -34.152281 0.875191 -4.189104 -2.082013 -13.461644 -8.150989 5.520675 -18.558749 -0.893712 -0.816671 -4.811725 -2.622799 0.000000 0.000000 0.000001 0.104542 -1.203683 9.928039 0.104547 -1.203675 9.928033 0.026176 -0.604112 4.963466 0.000001 0.000001 0.000001 0.104543 -1.203683 9.928039 0.104551 -1.203675 9.928032 0.026181 -0.604112 4.963466 0.000004 0.000001 -0.000002 0.104540 -1.203682 9.928040 0.104551 -1.203678 9.928033 0.026175 -0.604113 4.963463 -0.000000 -0.000001 0.000000 0.104543 -1.203683 9.928039 0.104551 -1.203677 9.928032 0.026177 -0.604112 4.963463 -0.000000 -0.000000 0.000001 -37.270864 19.544716 7.473837 34.780652 -3.599311 9.735492 0.146927 -0.215103 -10.537066 -0.000001 -0.000005 0.000001 0.000000 -0.000001 0.000001 -6.923574 -20.376264 1.510830 22.198540 7.701656 -1.402546 -21.550116 1.227964 -2.022002 0.000001 -0.000006 -0.000001 -0.000000 -0.000001 -0.000000 
